<svg width="17" height="20" viewBox="0 0 17 20" fill="none" xmlns="http://www.w3.org/2000/svg">
<path d="M13.5905 10.636C13.6004 9.86936 13.804 9.11773 14.1824 8.45098C14.5608 7.78423 15.1018 7.22404 15.7549 6.82252C15.34 6.22998 14.7926 5.74234 14.1563 5.39833C13.52 5.05433 12.8122 4.86343 12.0892 4.84081C10.5469 4.67893 9.05174 5.76369 8.26582 5.76369C7.46469 5.76369 6.25464 4.85688 4.95162 4.88369C4.10878 4.91092 3.28738 5.15601 2.56743 5.59508C1.84748 6.03415 1.25355 6.65223 0.843492 7.38909C-0.932778 10.4644 0.392159 14.9841 2.09368 17.47C2.94498 18.6873 3.93991 20.047 5.24176 19.9988C6.5157 19.9459 6.99149 19.1864 8.52924 19.1864C10.0527 19.1864 10.4991 19.9988 11.8274 19.9681C13.1944 19.9459 14.0556 18.7454 14.8771 17.5166C15.4887 16.6493 15.9594 15.6907 16.2717 14.6763C15.4775 14.3404 14.7997 13.7782 14.3229 13.0597C13.8462 12.3412 13.5914 11.4983 13.5905 10.636Z" fill="black"/>
<path d="M11.0816 3.20594C11.827 2.31118 12.1942 1.16113 12.1053 0C10.9666 0.1196 9.9147 0.663832 9.15929 1.52426C8.78995 1.9446 8.50707 2.43361 8.32683 2.96334C8.14659 3.49307 8.07252 4.05313 8.10886 4.61151C8.67842 4.61737 9.24189 4.49392 9.75683 4.25045C10.2718 4.00698 10.7247 3.64985 11.0816 3.20594Z" fill="black"/>
</svg>
