<svg width="16" height="17" viewBox="0 0 16 17" fill="none" xmlns="http://www.w3.org/2000/svg">
<path d="M15.975 8.34514C15.975 7.79474 15.9217 7.22658 15.833 6.69393H8.14507V9.83655H12.5483C12.3707 10.8486 11.7848 11.7363 10.9148 12.3045L13.5426 14.3463C15.0873 12.9082 15.975 10.8131 15.975 8.34514Z" fill="#4280EF"/>
<path d="M8.14508 16.2994C10.3467 16.2994 12.1932 15.5714 13.5426 14.3286L10.9148 12.3045C10.1869 12.8016 9.24588 13.0857 8.14508 13.0857C6.01448 13.0857 4.22124 11.6476 3.5643 9.73003L0.865555 11.8074C2.25044 14.5594 5.05572 16.2994 8.14508 16.2994Z" fill="#34A353"/>
<path d="M3.5643 9.71227C3.22696 8.70024 3.22696 7.59943 3.5643 6.5874L0.865553 4.49232C-0.288518 6.80046 -0.288518 9.51696 0.865553 11.8073L3.5643 9.71227Z" fill="#F6B704"/>
<path d="M8.14508 3.23172C9.29915 3.21397 10.4355 3.65784 11.2699 4.45681L13.5958 2.11316C12.1222 0.728277 10.1691 -0.0174298 8.14508 0.000325134C5.05572 0.000325134 2.25044 1.74031 0.865555 4.49232L3.5643 6.5874C4.22124 4.65212 6.01448 3.23172 8.14508 3.23172Z" fill="#E54335"/>
</svg>
